<?xml version="1.0" standalone="no"?>
<!DOCTYPE svg PUBLIC "-//W3C//DTD SVG 20010904//EN"
 "http://www.w3.org/TR/2001/REC-SVG-20010904/DTD/svg10.dtd">
<svg version="1.0" xmlns="http://www.w3.org/2000/svg"
 width="1310.000000pt" height="1278.000000pt" viewBox="0 0 1310.000000 1278.000000"
 preserveAspectRatio="xMidYMid meet">
<metadata>
Created by potrace 1.15, written by Peter Selinger 2001-2017
</metadata>
<g transform="translate(0.000000,1278.000000) scale(0.100000,-0.100000)"
fill="#000000" stroke="none">
<path d="M5198 12746 c-122 -65 -144 -74 -228 -100 -139 -42 -238 -105 -366
-231 -159 -157 -282 -352 -388 -615 -31 -77 -37 -86 -68 -94 -274 -73 -555
-202 -863 -394 -146 -90 -396 -264 -416 -288 -8 -10 -14 -39 -14 -70 0 -45 4
-57 29 -83 17 -17 39 -31 51 -31 21 0 22 -4 28 -172 6 -182 26 -357 56 -494
l17 -82 -34 -41 c-42 -51 -52 -106 -27 -149 24 -40 70 -65 108 -59 31 4 33 3
72 -81 58 -125 147 -255 245 -356 93 -97 132 -120 185 -110 42 8 95 64 95 100
0 37 -11 53 -102 146 -94 95 -160 189 -223 316 -52 107 -68 155 -60 182 9 28
229 227 352 319 57 42 140 98 184 124 74 44 81 46 75 25 -14 -48 -19 -532 -7
-664 18 -192 36 -284 61 -308 26 -27 95 -28 134 -3 48 32 57 70 41 172 -25
153 -35 388 -25 570 11 185 28 346 38 357 9 10 185 55 245 64 l47 6 0 -88 c0
-196 43 -583 102 -919 29 -161 35 -183 59 -207 44 -45 122 -35 166 22 18 22
16 91 -7 210 -47 252 -84 575 -96 838 -7 152 -7 152 15 152 12 0 33 11 46 25
20 19 25 34 25 75 0 44 -5 56 -29 81 -16 16 -37 29 -47 29 -16 0 -17 12 -10
163 5 138 32 426 40 434 1 2 36 -7 77 -18 105 -29 250 -108 348 -189 76 -63
88 -70 128 -70 36 0 50 6 73 29 58 57 52 111 -18 177 -52 50 -201 153 -271
189 -57 28 -203 80 -254 89 -37 7 -38 8 -31 39 14 67 68 216 110 305 106 227
261 395 449 489 96 48 105 58 105 111 0 37 -6 50 -34 78 -47 47 -100 47 -188
0z m-558 -643 c-21 -52 -83 -243 -100 -310 l-11 -43 -49 0 c-48 0 -49 1 -40
24 34 90 198 376 215 376 3 0 -4 -21 -15 -47z m-154 -590 c-16 -76 -37 -295
-43 -433 l-6 -155 -101 -17 c-56 -10 -112 -20 -125 -24 -23 -7 -24 -6 -17 40
10 67 90 394 123 506 l28 95 45 6 c97 13 102 12 96 -18z m-391 -60 c-17 -44
-108 -417 -128 -531 l-23 -127 -118 -62 c-191 -101 -346 -211 -523 -370 -76
-69 -83 -73 -87 -51 -14 63 -27 200 -36 382 -6 111 -12 217 -15 237 l-5 37
168 109 c184 120 279 176 422 248 89 45 324 144 344 145 4 0 5 -8 1 -17z"/>
<path d="M4595 9333 c-508 -17 -1022 -198 -1430 -503 -539 -404 -913 -1044
-1064 -1823 -129 -662 -97 -1245 96 -1747 49 -130 99 -227 122 -240 68 -36
161 20 161 98 0 24 -14 70 -35 117 -85 187 -158 449 -192 695 -23 172 -23 545
1 725 59 447 193 865 394 1232 383 699 1010 1118 1800 1203 149 17 494 8 622
-15 497 -89 784 -341 1045 -913 34 -75 112 -261 173 -413 188 -467 290 -687
407 -874 183 -293 420 -519 664 -634 l83 -38 -33 -12 c-18 -6 -43 -20 -54 -31
-21 -20 -21 -20 -73 0 -71 27 -183 27 -256 0 -169 -64 -320 -215 -617 -621
-132 -180 -258 -290 -473 -414 -124 -71 -231 -119 -561 -252 -417 -169 -623
-263 -798 -365 -38 -22 -70 -38 -72 -36 -1 1 -17 36 -33 75 -38 88 -94 187
-156 271 -35 47 -46 71 -46 99 0 48 -54 98 -164 152 -146 71 -295 88 -440 51
-134 -34 -246 -109 -246 -165 0 -27 -1 -27 -19 -11 -29 27 -81 38 -119 25 -92
-30 -197 -303 -217 -559 -19 -244 61 -624 201 -958 24 -58 44 -107 44 -108 0
-2 -14 -4 -30 -4 -39 0 -77 -36 -85 -83 -10 -50 19 -107 65 -128 75 -36 88
-84 30 -114 -39 -20 -67 -19 -97 5 -37 29 -68 25 -161 -22 -74 -38 -91 -42
-171 -46 -72 -4 -104 0 -160 17 -39 12 -76 28 -83 37 -45 55 -48 56 -102 51
-28 -3 -71 -10 -95 -15 -51 -11 -91 -1 -91 24 0 37 25 96 56 133 43 50 110 80
192 88 37 3 75 10 84 15 26 13 50 66 46 99 -4 23 0 30 25 40 16 7 35 22 43 33
45 70 19 455 -52 776 -53 235 -190 631 -239 688 -21 24 -30 27 -85 27 -55 0
-64 -3 -86 -28 -13 -15 -24 -38 -24 -50 0 -12 20 -73 45 -135 162 -411 245
-799 245 -1149 l0 -92 -47 -6 c-169 -23 -316 -124 -380 -262 -20 -45 -28 -78
-31 -146 -6 -110 12 -161 73 -215 56 -50 108 -64 210 -61 49 2 89 -1 96 -8 28
-22 175 -65 260 -76 106 -13 235 1 307 34 39 18 62 22 142 20 148 -4 242 40
298 139 16 27 43 60 62 72 52 36 73 71 73 120 -1 33 -22 88 -86 223 -102 219
-156 357 -201 512 -64 223 -87 426 -66 589 15 126 41 207 99 319 l46 90 22
-22 c33 -34 78 -30 138 12 27 20 78 44 113 55 l64 20 32 -35 c30 -31 39 -35
86 -35 70 0 109 -21 178 -94 73 -79 140 -178 191 -287 63 -131 63 -127 -9
-190 -125 -108 -230 -267 -265 -399 -8 -31 -15 -100 -15 -156 0 -122 29 -236
92 -356 51 -99 188 -246 302 -325 79 -55 242 -138 319 -163 21 -6 41 -18 44
-25 2 -8 -14 -74 -37 -147 -100 -314 -126 -423 -137 -570 l-6 -88 44 -43 44
-44 195 -1 c409 0 773 -89 1310 -319 58 -25 109 -49 114 -53 11 -11 -21 -27
-124 -65 -100 -36 -135 -74 -126 -135 3 -19 9 -63 14 -97 26 -169 117 -286
281 -360 148 -67 393 -86 554 -44 166 44 287 125 345 232 l32 61 128 -1 c222
-3 373 42 472 138 45 45 59 65 64 98 l8 42 85 -56 c190 -124 567 -301 801
-377 493 -159 939 -199 1472 -130 402 51 727 151 1050 321 157 83 216 123 344
233 l102 88 117 -6 c191 -8 311 30 406 127 176 181 156 536 -37 659 -26 17
-59 34 -73 37 l-27 7 -1 112 c-2 216 -74 462 -185 628 -132 199 -287 322 -660
526 -218 119 -355 201 -464 279 -90 64 -242 212 -308 300 l-56 74 21 23 c33
35 37 84 13 158 -29 86 -46 199 -77 493 -32 308 -57 478 -91 615 -58 236 -150
391 -269 453 -48 25 -189 35 -249 18 -42 -11 2 -20 -746 155 -500 118 -871
157 -1159 124 -68 -8 -88 -7 -100 4 -9 7 -52 21 -96 31 -239 52 -457 175 -625
352 -213 223 -332 444 -585 1083 -178 449 -297 701 -414 877 -131 198 -310
370 -484 467 -238 133 -636 211 -1012 199z m3756 -3223 c232 -23 406 -57 884
-175 209 -52 399 -97 423 -101 48 -7 46 -3 30 -106 -13 -91 -6 -118 44 -148
47 -28 91 -26 128 8 30 27 39 57 55 185 7 51 16 56 56 29 94 -62 147 -202 188
-494 17 -117 51 -435 51 -472 0 -23 -13 13 -79 224 -39 124 -77 236 -84 249
-28 55 -125 63 -173 16 -36 -36 -31 -82 26 -262 185 -580 351 -905 594 -1160
145 -152 276 -242 606 -418 253 -135 380 -211 485 -292 173 -134 267 -285 321
-518 30 -126 25 -349 -10 -480 -90 -341 -331 -598 -768 -816 -279 -141 -580
-231 -928 -281 -148 -20 -642 -17 -795 5 -381 57 -707 160 -1020 321 -752 388
-1288 1011 -1470 1710 -54 208 -68 327 -63 560 l4 201 86 175 c196 398 379
939 518 1525 66 279 70 317 41 355 l-21 29 27 15 c91 46 324 107 458 119 89 8
289 6 386 -3z m-1146 -159 c22 -10 46 -25 54 -34 7 -10 20 -17 27 -17 20 0 19
-2 -32 -220 -84 -356 -202 -743 -319 -1049 -82 -215 -203 -474 -231 -497 -17
-14 -31 -41 -40 -74 -32 -125 -284 -486 -466 -669 -248 -248 -490 -376 -783
-411 -152 -18 -422 7 -434 41 -9 28 -59 68 -94 74 -24 5 -46 2 -68 -9 -30 -15
-34 -14 -117 21 -342 147 -551 443 -488 693 57 229 272 438 630 614 136 67
255 116 567 235 501 189 763 333 980 540 105 99 151 156 319 394 141 199 289
343 383 373 56 17 65 17 112 -5z m-549 -2591 c32 -251 128 -559 248 -793 151
-294 379 -590 625 -811 l98 -89 -23 -35 c-37 -54 -32 -97 16 -143 l40 -38 -68
-21 c-159 -50 -325 -49 -379 2 -17 16 -39 23 -83 26 -57 4 -61 3 -95 -31 -29
-29 -35 -42 -35 -79 0 -24 6 -53 14 -64 13 -18 13 -24 0 -50 -39 -75 -125
-124 -257 -145 -155 -24 -345 9 -433 76 -44 33 -82 91 -86 129 -3 26 1 31 27
37 62 14 112 42 165 94 30 30 71 61 92 69 52 22 78 59 78 113 0 59 -12 69
-185 150 -583 273 -1043 405 -1467 420 l-168 6 0 26 c0 44 37 186 102 391 33
107 62 196 63 198 1 1 44 -5 96 -14 141 -24 418 -15 554 19 271 68 485 185
712 387 94 83 242 244 303 330 l25 35 3 -35 c1 -19 9 -91 18 -160z m5511
-1277 c18 -44 20 -123 4 -181 -22 -81 -103 -146 -197 -159 l-47 -6 27 44 c62
102 116 223 152 347 6 22 44 -6 61 -45z"/>
<path d="M8244 5324 c-77 -38 -85 -157 -12 -191 13 -6 75 -52 138 -103 63 -52
147 -114 185 -139 l70 -46 -11 -65 c-36 -203 9 -534 82 -607 34 -34 111 -32
154 4 28 23 31 31 28 67 -3 23 -15 79 -29 126 -20 71 -24 107 -24 220 0 171 7
226 33 253 51 55 54 114 8 165 -31 33 -40 37 -83 37 -65 1 -62 -1 -317 198
-68 54 -146 97 -173 97 -10 0 -32 -7 -49 -16z"/>
<path d="M9348 5329 c-10 -5 -72 -64 -138 -131 -124 -125 -180 -209 -180 -268
0 -59 76 -108 139 -90 l28 8 6 -147 c4 -104 11 -169 27 -226 26 -95 86 -227
124 -272 25 -29 34 -33 78 -33 44 0 54 4 84 34 21 21 34 44 34 60 0 14 -20 66
-45 115 -64 126 -87 234 -86 396 0 72 -4 142 -10 156 -11 28 -46 49 -82 49
-18 0 -12 9 35 53 94 85 138 146 138 189 0 20 -5 49 -12 63 -21 46 -96 70
-140 44z"/>
<path d="M10385 3014 c-316 -50 -487 -193 -488 -410 0 -59 5 -82 27 -128 55
-112 203 -215 406 -282 73 -24 101 -28 200 -28 128 0 185 15 289 76 78 47 241
206 327 321 84 112 94 148 49 193 -19 19 -25 35 -25 68 0 31 -6 48 -23 64 -36
34 -127 71 -244 98 -92 22 -137 26 -298 29 -104 2 -203 1 -220 -1z m405 -224
c88 -19 189 -50 195 -61 8 -12 -82 -125 -157 -200 -103 -101 -202 -149 -305
-149 -115 0 -331 96 -387 172 -71 98 61 212 289 249 66 10 295 4 365 -11z"/>
</g>
</svg>
